<?xml version="1.0" standalone="no"?>
<!DOCTYPE svg PUBLIC "-//W3C//DTD SVG 20010904//EN"
 "http://www.w3.org/TR/2001/REC-SVG-20010904/DTD/svg10.dtd">
<svg version="1.0" xmlns="http://www.w3.org/2000/svg"
 width="264.000000pt" height="264.000000pt" viewBox="0 0 264.000000 264.000000"
 preserveAspectRatio="xMidYMid meet">
<metadata>
Created by potrace 1.14, written by Peter Selinger 2001-2017
</metadata>
<g transform="translate(0.000000,264.000000) scale(0.100000,-0.100000)"
fill="#000000" stroke="none">
<path d="M0 1320 l0 -1320 1320 0 1320 0 0 1320 0 1320 -1320 0 -1320 0 0
-1320z m2240 786 c0 -2 -18 -36 -41 -75 l-41 -71 -744 0 c-409 0 -744 -3 -744
-8 0 -4 20 -42 45 -85 l45 -77 275 -2 275 -3 -85 -145 c-47 -80 -89 -145 -93
-144 -4 0 -25 32 -48 70 l-41 69 -97 3 c-54 1 -96 -1 -93 -5 2 -4 43 -74 91
-155 47 -80 86 -152 86 -158 0 -6 -19 -43 -41 -81 l-41 -69 -274 465 c-151
257 -274 468 -274 471 0 2 414 4 920 4 506 0 920 -2 920 -4z m-192 -325 c-1
-6 -41 -75 -88 -155 l-85 -146 -88 0 -88 0 32 58 c17 31 36 61 41 67 25 28 7
35 -84 35 l-93 0 -87 -148 c-48 -81 -90 -155 -93 -164 -6 -16 7 -18 173 -20
l181 -3 -42 -72 -41 -73 -186 0 -186 0 -42 -73 c-23 -40 -42 -79 -42 -86 0
-15 80 -151 89 -151 4 0 27 34 51 75 l44 75 89 0 88 0 -33 -58 c-106 -186
-234 -401 -238 -402 -6 0 -264 437 -268 456 -2 7 99 189 225 404 l228 390 273
0 c166 0 272 -4 270 -9z"/>
</g>
</svg>
